<svg width="151" height="140" viewBox="0 0 151 140" fill="none" xmlns="http://www.w3.org/2000/svg">
<g clip-path="url(#clip0_2_67)">
<path d="M0.697506 99.8006C0.70814 99.8557 0.724909 99.9093 0.747498 99.9606C0.757497 99.9906 0.767496 100.031 0.777494 100.061L12.1858 119.818L12.2158 119.848C12.2358 119.878 12.2558 119.908 12.2858 119.948C12.3244 119.99 12.3681 120.027 12.4158 120.058C12.4458 120.078 12.4658 120.108 12.4958 120.128C12.5075 120.136 12.5217 120.139 12.5358 120.138C12.649 120.201 12.776 120.235 12.9057 120.238H58.0391L69.2075 139.575L69.2374 139.605C69.2574 139.635 69.2774 139.665 69.3074 139.705C69.346 139.747 69.3897 139.784 69.4374 139.815C69.4674 139.835 69.4874 139.865 69.5174 139.885C69.5291 139.893 69.5433 139.896 69.5574 139.895C69.6706 139.958 69.7977 139.992 69.9273 139.995H138.367C138.5 139.992 138.63 139.958 138.747 139.895L138.837 139.835C138.922 139.778 138.997 139.707 139.057 139.625C139.067 139.605 139.097 139.595 139.107 139.575L150.516 119.818C150.526 119.798 150.525 119.788 150.536 119.768C150.553 119.736 150.567 119.703 150.576 119.668C150.586 119.628 150.596 119.598 150.605 119.558C150.614 119.522 150.617 119.485 150.615 119.448C150.615 119.428 150.626 119.418 150.626 119.398C150.626 119.378 150.615 119.368 150.615 119.348C150.615 119.308 150.605 119.278 150.605 119.238C150.605 119.198 150.586 119.168 150.576 119.128C150.564 119.094 150.551 119.06 150.536 119.028C150.525 119.008 150.526 118.998 150.516 118.978L127.949 79.8936L139.107 60.5564C139.117 60.5364 139.117 60.5264 139.127 60.5064C139.145 60.4749 139.158 60.4413 139.167 60.4064C139.177 60.3664 139.187 60.3364 139.197 60.2964C139.205 60.2604 139.209 60.2234 139.207 60.1865C139.207 60.1665 139.217 60.1565 139.217 60.1365C139.217 60.1165 139.207 60.1065 139.207 60.0865C139.207 60.0465 139.197 60.0165 139.197 59.9765C139.197 59.9365 139.177 59.9065 139.167 59.8665C139.156 59.8325 139.142 59.7991 139.127 59.7665C139.117 59.7465 139.117 59.7365 139.107 59.7165L104.902 0.435216C104.882 0.405221 104.852 0.385224 104.832 0.355228C104.798 0.309853 104.761 0.266457 104.722 0.225247C104.681 0.191914 104.638 0.161827 104.592 0.13526C104.549 0.106026 104.502 0.0825028 104.452 0.0652707C104.394 0.0461412 104.333 0.0327469 104.272 0.0252766C104.242 0.0252766 104.212 0.00527954 104.172 0.00527954H81.3557C81.3357 0.00527954 81.3257 0.0152781 81.3057 0.0152781C81.2657 0.0152781 81.2357 0.0252766 81.1957 0.0252766L81.0757 0.0552722C81.0457 0.0652707 81.0057 0.0852678 80.9757 0.0952664C80.9457 0.105265 80.9457 0.105265 80.9257 0.115263C80.9143 0.127614 80.9008 0.137779 80.8857 0.145259C80.8534 0.165408 80.8232 0.188864 80.7958 0.215249C80.7666 0.239333 80.7398 0.266114 80.7158 0.295237C80.6958 0.325233 80.6658 0.355228 80.6458 0.385224C80.6334 0.396618 80.6233 0.410171 80.6158 0.425218L58.0491 39.5195H35.7324C35.7124 39.5195 35.7024 39.5295 35.6824 39.5295C35.6424 39.5295 35.6124 39.5395 35.5724 39.5395C35.5324 39.5395 35.4924 39.5595 35.4624 39.5695C35.4284 39.5811 35.395 39.5944 35.3624 39.6095C35.3424 39.6195 35.3324 39.6195 35.3124 39.6295C35.2924 39.6395 35.2924 39.6495 35.2724 39.6595C35.2401 39.6796 35.2099 39.7031 35.1824 39.7295C35.1533 39.7535 35.1265 39.7803 35.1025 39.8094C35.0825 39.8394 35.0525 39.8694 35.0325 39.8994C35.0201 39.9108 35.01 39.9244 35.0025 39.9394L0.787493 99.2207C0.772953 99.2525 0.76286 99.2862 0.757497 99.3207C0.736308 99.3725 0.719583 99.426 0.707504 99.4807C0.691633 99.5325 0.684867 99.5866 0.687507 99.6407C0.685852 99.6942 0.689199 99.7477 0.697506 99.8006ZM103.682 1.70503L136.928 59.2866H116.071L82.8155 1.70503H103.682ZM115.091 98.8008H94.2238L116.061 60.9663H136.928L115.091 98.8008ZM81.3557 2.54491L114.601 60.1265L92.764 97.9609L82.3355 79.8836L93.5039 60.5464C93.5139 60.5264 93.5139 60.5164 93.5239 60.4964C93.5415 60.4649 93.5549 60.4313 93.5639 60.3964C93.5739 60.3564 93.5839 60.3264 93.5939 60.2864C93.6021 60.2504 93.6055 60.2134 93.6039 60.1764C93.6039 60.1565 93.6139 60.1465 93.6139 60.1265C93.6139 60.1065 93.6039 60.0965 93.6039 60.0765C93.6039 60.0365 93.5939 60.0065 93.5939 59.9665C93.5939 59.9265 93.5739 59.8965 93.5639 59.8565C93.5523 59.8225 93.5389 59.7891 93.5239 59.7565C93.5139 59.7365 93.5139 59.7265 93.5039 59.7065L82.0856 39.9494C82.0656 39.9194 82.0356 39.8994 82.0156 39.8694C81.9814 39.8241 81.9447 39.7807 81.9056 39.7394C81.8647 39.7061 81.8212 39.676 81.7756 39.6495C81.731 39.6222 81.6842 39.5988 81.6356 39.5795C81.5811 39.5598 81.5236 39.5497 81.4657 39.5495C81.4357 39.5495 81.3957 39.5295 81.3657 39.5295H60.0088L81.3557 2.54491ZM58.549 41.2192H80.8757L91.3142 59.2866H47.6306L37.1921 41.2192H58.549ZM35.7324 42.0591L46.1608 60.1265L12.9157 117.708L2.48724 99.6407L35.7324 42.0591ZM14.3855 118.548L47.6306 60.9663H91.3142L80.8757 79.0437H58.549C58.529 79.0437 58.519 79.0537 58.499 79.0537C58.459 79.0537 58.429 79.0637 58.389 79.0637L58.2691 79.0937C58.2391 79.1037 58.1991 79.1237 58.1691 79.1337C58.1391 79.1437 58.1391 79.1437 58.1191 79.1537C58.1077 79.166 58.0941 79.1762 58.0791 79.1837C58.0467 79.2038 58.0166 79.2273 57.9891 79.2537C57.96 79.2777 57.9332 79.3045 57.9091 79.3336C57.8891 79.3636 57.8591 79.3936 57.8391 79.4236C57.8291 79.4336 57.8091 79.4436 57.8091 79.4636L46.4008 99.2207C46.3863 99.2525 46.3762 99.2862 46.3708 99.3207C46.3496 99.3725 46.3329 99.426 46.3208 99.4807C46.3122 99.5336 46.3088 99.5871 46.3108 99.6407C46.3092 99.6942 46.3125 99.7477 46.3208 99.8006C46.3314 99.8557 46.3482 99.9093 46.3708 99.9606C46.3808 99.9906 46.3908 100.031 46.4008 100.061L57.0792 118.548H14.3855ZM137.907 138.305H71.4171L81.8456 120.238H148.336L137.907 138.305ZM69.9573 137.465L48.1205 99.6407L58.559 81.5633L80.3958 119.388L69.9573 137.465ZM148.336 118.548H81.8456L60.0088 80.7234H80.8757L92.0441 100.061L92.0741 100.091C92.094 100.126 92.1175 100.16 92.1441 100.191C92.1827 100.232 92.2264 100.269 92.2741 100.301C92.3041 100.321 92.3241 100.351 92.3541 100.371C92.3658 100.379 92.38 100.382 92.3941 100.381C92.5072 100.444 92.6343 100.478 92.764 100.481H115.581C115.713 100.478 115.844 100.444 115.961 100.381L116.051 100.321C116.135 100.264 116.21 100.193 116.271 100.111C116.281 100.091 116.311 100.081 116.321 100.061L126.999 81.5633L148.336 118.548Z" fill="white"/>
</g>
<defs>
<clipPath id="clip0_2_67">
<rect width="149.938" height="140" fill="white" transform="translate(0.6875)"/>
</clipPath>
</defs>
</svg>
