<svg width="140" height="122" viewBox="0 0 140 122" fill="none" xmlns="http://www.w3.org/2000/svg">
<g clip-path="url(#clip0_2_76)">
<path d="M0.0200282 108.471C0.032167 108.522 0.0488838 108.572 0.0700013 108.62C0.0754434 108.652 0.0855517 108.682 0.0999913 108.71L7.37785 121.328L7.40784 121.358C7.42798 121.39 7.45144 121.42 7.47782 121.448C7.51781 121.488 7.55779 121.518 7.59778 121.558C7.62777 121.578 7.63778 121.608 7.66777 121.618C7.6795 121.626 7.69364 121.629 7.70774 121.628C7.81628 121.683 7.93579 121.714 8.05764 121.718H131.891C132.013 121.714 132.132 121.683 132.241 121.628C132.271 121.608 132.291 121.588 132.321 121.568C132.402 121.517 132.47 121.449 132.521 121.368C132.531 121.348 132.551 121.338 132.571 121.318L139.859 108.7C139.869 108.69 139.869 108.67 139.879 108.66C139.898 108.63 139.912 108.596 139.919 108.561C139.929 108.531 139.939 108.491 139.949 108.461C139.957 108.428 139.96 108.394 139.959 108.361C139.959 108.341 139.969 108.331 139.969 108.311C139.969 108.291 139.959 108.281 139.959 108.261C139.959 108.241 139.949 108.191 139.949 108.161C139.949 108.131 139.929 108.091 139.919 108.061C139.908 108.026 139.895 107.993 139.879 107.961C139.869 107.951 139.869 107.931 139.859 107.921L77.9471 0.671996C77.9296 0.646608 77.9095 0.623148 77.8871 0.60201C77.8558 0.557416 77.8188 0.517085 77.7771 0.482034C77.6987 0.424307 77.615 0.374094 77.5272 0.332063C77.4751 0.316352 77.4215 0.306296 77.3672 0.302069C77.3372 0.302069 77.3072 0.282074 77.2673 0.282074H62.7015C62.6815 0.282074 62.6716 0.292071 62.6516 0.292071C62.6316 0.292071 62.5816 0.302069 62.5516 0.302069L62.4416 0.332063C62.4073 0.342769 62.3739 0.35614 62.3417 0.372055C62.3299 0.380007 62.3158 0.38355 62.3017 0.382053C62.2903 0.394403 62.2767 0.404568 62.2617 0.412047C62.2333 0.429591 62.2065 0.449669 62.1817 0.472036C62.1526 0.496118 62.1258 0.522899 62.1017 0.55202C62.0817 0.582014 62.0617 0.60201 62.0417 0.632004C62.0294 0.643397 62.0192 0.65695 62.0117 0.671996L0.0899844 107.931C0.0755449 107.959 0.0654365 107.989 0.0599945 108.021C0.0388618 108.069 0.0221446 108.119 0.0100214 108.171C0.00171515 108.22 -0.00164352 108.27 1.46138e-05 108.321C0.0100117 108.371 0.0100312 108.421 0.0200282 108.471ZM76.8174 1.85176L137.829 107.531H31.2808L37.6589 96.4929H117.345C117.469 96.4919 117.59 96.4574 117.695 96.3929C117.705 96.3829 117.725 96.3929 117.735 96.3829C117.761 96.3655 117.784 96.3454 117.805 96.3229C117.848 96.289 117.888 96.2523 117.925 96.213C117.955 96.1754 117.982 96.1352 118.005 96.093C118.035 96.0549 118.056 96.0104 118.065 95.963C118.086 95.9122 118.096 95.8578 118.095 95.803C118.095 95.7731 118.115 95.7431 118.115 95.7031C118.115 95.6831 118.105 95.6731 118.105 95.6531C118.1 95.6022 118.09 95.552 118.075 95.5031C118.063 95.4517 118.046 95.4015 118.025 95.3531C118.015 95.3431 118.015 95.3232 118.005 95.3132L64.0511 1.85176H76.8174ZM131.451 120.148H9.42723L62.7015 27.8666L69.0797 38.9044L29.2314 107.921C29.2234 107.932 29.2199 107.947 29.2214 107.961C29.2003 108.009 29.1835 108.059 29.1714 108.111C29.1566 108.16 29.1466 108.21 29.1414 108.261C29.1414 108.281 29.1314 108.291 29.1314 108.311C29.1314 108.331 29.1514 108.371 29.1514 108.411C29.1566 108.465 29.1666 108.518 29.1814 108.571C29.2014 108.62 29.2214 108.66 29.2414 108.7C29.2657 108.742 29.2924 108.782 29.3214 108.82C29.3614 108.86 29.4014 108.89 29.4414 108.93C29.4713 108.95 29.4813 108.98 29.5113 108.99C29.5213 109 29.5413 108.99 29.5513 109C29.6592 109.059 29.7786 109.093 29.9012 109.1H137.809L131.451 120.148ZM101.41 94.9232H38.5587L69.9894 40.4841L101.41 94.9232ZM62.7015 2.6416L115.976 94.9232H103.23L63.3913 25.907C63.379 25.8956 63.3688 25.882 63.3614 25.867C63.3314 25.827 63.2914 25.787 63.2614 25.747C63.2261 25.7084 63.1857 25.6748 63.1414 25.647C63.13 25.6347 63.1165 25.6245 63.1014 25.617C63.0731 25.6026 63.0428 25.5925 63.0114 25.587C62.9631 25.5659 62.9129 25.5492 62.8615 25.537C62.762 25.5237 62.6611 25.5237 62.5616 25.537C62.5102 25.5492 62.46 25.5659 62.4116 25.587C62.3803 25.5925 62.35 25.6026 62.3216 25.617C62.3103 25.6294 62.2967 25.6395 62.2817 25.647C62.2417 25.677 62.2017 25.717 62.1617 25.747C62.1204 25.7796 62.0864 25.8205 62.0617 25.867C62.0494 25.8784 62.0392 25.8919 62.0318 25.907L8.07765 119.368L1.69953 108.331L62.7015 2.6416Z" fill="white"/>
</g>
<defs>
<clipPath id="clip0_2_76">
<rect width="139.969" height="121.438" fill="white" transform="translate(0 0.28125)"/>
</clipPath>
</defs>
</svg>
