<svg width="122" height="140" viewBox="0 0 122 140" fill="none" xmlns="http://www.w3.org/2000/svg">
<g clip-path="url(#clip0_2_85)">
<path d="M121.922 35.0105L101.226 23.0624L82.0189 34.1507V11.9642L61.3126 0.0160828L40.6162 11.9642V34.1407L21.4095 23.0524L0.703125 35.0105V58.9168L19.9098 70.005L0.703125 81.0932V104.999L21.3995 116.948L40.6062 105.859V128.036L61.3026 139.984L81.9989 128.036V105.859L101.206 116.948L121.922 104.999V81.0932L102.715 70.005L121.922 58.9168V35.0105ZM101.226 24.7822L119.692 35.4405L82.1389 57.187L82.0189 35.8704L101.226 24.7822ZM80.5292 36.7303L80.6491 58.0569L62.0624 68.8252V24.3522L80.5292 13.6939V36.7303ZM42.1059 13.6939L60.5627 24.3522V68.8252L42.1059 58.1369V13.6939ZM21.3995 24.7822L40.6062 35.8704V57.257L2.94278 35.4405L21.3995 24.7822ZM2.19292 58.0569V36.7403L39.8663 58.5568L21.4095 69.1451L2.19292 58.0569ZM2.19292 104.14V82.823L20.6496 93.4813V114.798L2.19292 104.14ZM2.94278 81.5232L21.7794 70.6549L41.366 59.4167L59.8228 70.105L21.4095 92.1815L2.94278 81.5232ZM60.5627 137.834L42.1059 127.176V104.999L60.5627 94.3411V137.834ZM42.1059 103.28L40.9861 103.93L22.1494 114.808V93.4913L60.5627 71.4148V92.6214L42.1059 103.28ZM61.3126 23.0624L42.8558 12.4041L61.3126 1.74581L79.7693 12.4041L61.3126 23.0624ZM80.5191 127.176L62.0624 137.834V94.3411L80.5191 104.999V127.176ZM100.476 114.798L81.639 103.92L80.5191 103.27L62.0624 92.6114V71.4048L100.476 93.4813V114.798ZM120.432 104.14L101.975 114.798V93.3013L120.432 82.813V104.14ZM119.672 81.5232L101.066 92.1015L62.8023 70.115L81.389 59.3467L99.7358 70.005L100.356 70.3649L100.726 70.5849L100.846 70.6549L119.672 81.5232ZM120.432 58.0569L101.226 69.1451L82.8887 58.4868L120.442 36.7403V58.0569H120.432Z" fill="white"/>
</g>
<defs>
<clipPath id="clip0_2_85">
<rect width="121.219" height="139.969" fill="white" transform="translate(0.703125 0.015625)"/>
</clipPath>
</defs>
</svg>
