<svg width="141" height="126" viewBox="0 0 141 126" fill="none" xmlns="http://www.w3.org/2000/svg">
<g clip-path="url(#clip0_2_95)">
<path d="M115.171 0.0689392L88.9967 15.0656L89.0466 54.107L52.6148 14.5557L25.9107 0.0789372L0.65625 14.3558V95.5478L26.1806 109.795L52.3748 95.2979V88.6393L87.9469 125.931L140.625 95.5178V14.3558L115.171 0.0689392ZM91.4461 17.865L116.111 32.0119V83.4805L91.4862 56.7564L91.4461 17.865ZM3.10572 17.1652L25.4608 30.0723L87.0771 96.2776L87.0971 121.472L25.0409 56.4065V106.345L3.10572 94.1181V17.1652ZM49.9254 86.2898V93.8682L27.3704 106.345V62.4651L50.0653 86.2898H49.9254ZM138.296 94.1281L89.5265 122.272L89.5066 95.3278L26.9904 28.1627L4.33543 15.0856L25.9506 2.85832L51.125 16.5053L118.56 89.6991V30.6022L92.6758 15.7655L115.241 2.84832L138.296 15.7655V94.1281Z" fill="white"/>
</g>
<defs>
<clipPath id="clip0_2_95">
<rect width="139.969" height="125.875" fill="white" transform="translate(0.65625 0.0625)"/>
</clipPath>
</defs>
</svg>
