<svg width="141" height="122" viewBox="0 0 141 122" fill="none" xmlns="http://www.w3.org/2000/svg">
<g clip-path="url(#clip0_2_113)">
<path d="M116.898 101.65C116.908 101.64 116.908 101.62 116.918 101.61C116.938 101.579 116.951 101.545 116.958 101.51C116.968 101.48 116.978 101.44 116.988 101.41C116.996 101.377 117 101.343 116.998 101.31C116.998 101.29 117.008 101.28 117.008 101.26C117.008 101.24 116.998 101.23 116.998 101.21C116.998 101.19 116.988 101.14 116.988 101.11C116.988 101.08 116.968 101.04 116.958 101.01C116.947 100.975 116.934 100.942 116.918 100.91C116.908 100.9 116.908 100.88 116.898 100.87L105.682 81.4447H128.104C128.226 81.441 128.346 81.4103 128.454 81.3548C128.484 81.3348 128.504 81.3148 128.534 81.2948C128.615 81.244 128.683 81.1757 128.734 81.0948C128.744 81.0748 128.764 81.0648 128.784 81.0448L140.14 61.3799C140.15 61.3699 140.15 61.3499 140.16 61.3399C140.179 61.3093 140.193 61.2754 140.2 61.2399C140.21 61.2099 140.22 61.1699 140.23 61.14C140.238 61.1073 140.242 61.0736 140.24 61.04C140.24 61.02 140.25 61.01 140.25 60.99C140.25 60.97 140.24 60.96 140.24 60.94C140.24 60.92 140.23 60.87 140.23 60.84C140.23 60.81 140.21 60.77 140.2 60.7401C140.189 60.7057 140.176 60.6723 140.16 60.6401C140.15 60.6301 140.15 60.6101 140.14 60.6001L128.784 40.9351C128.767 40.9097 128.746 40.8863 128.724 40.8652C128.693 40.8204 128.656 40.78 128.614 40.7452C128.572 40.7129 128.529 40.6828 128.484 40.6552C128.444 40.6293 128.4 40.6091 128.354 40.5952C128.303 40.5756 128.249 40.5655 128.194 40.5652C128.164 40.5652 128.134 40.5452 128.104 40.5452H105.682L116.898 21.1202C116.908 21.1102 116.908 21.0902 116.918 21.0802C116.938 21.0496 116.951 21.0157 116.958 20.9802C116.968 20.9503 116.978 20.9103 116.988 20.8803C116.996 20.8476 117 20.8139 116.998 20.7803C116.998 20.7603 117.008 20.7503 117.008 20.7303C117.008 20.7103 116.998 20.7003 116.998 20.6803C116.998 20.6603 116.988 20.6103 116.988 20.5803C116.988 20.5504 116.968 20.5104 116.958 20.4804C116.947 20.4461 116.934 20.4126 116.918 20.3804C116.908 20.3704 116.908 20.3504 116.898 20.3404L105.552 0.675453C105.535 0.650067 105.515 0.626608 105.492 0.605472C105.462 0.563102 105.429 0.523005 105.392 0.485502C105.351 0.453187 105.307 0.423151 105.262 0.395525C105.222 0.369599 105.178 0.349411 105.132 0.33554C105.081 0.315966 105.027 0.305805 104.972 0.305548C104.942 0.305548 104.912 0.285553 104.882 0.285553H82.1805C82.1605 0.285553 82.1505 0.295551 82.1305 0.295551C82.1105 0.295551 82.0605 0.305548 82.0306 0.305548L81.9206 0.33554C81.8889 0.3446 81.8585 0.358061 81.8306 0.37553C81.8188 0.383482 81.8047 0.387024 81.7906 0.385528L81.7606 0.41552C81.7322 0.433031 81.7055 0.45311 81.6807 0.475505C81.6516 0.499586 81.6247 0.526365 81.6007 0.555484C81.5807 0.585477 81.5607 0.605471 81.5407 0.635464C81.5284 0.646856 81.5182 0.660408 81.5107 0.675453L70.2947 20.1005L59.0787 0.675453C59.0612 0.650067 59.0411 0.626608 59.0187 0.605472C58.9848 0.563039 58.948 0.522956 58.9087 0.485502C58.8711 0.455428 58.831 0.428668 58.7888 0.405522C58.7484 0.379596 58.7047 0.359408 58.6588 0.345538C58.608 0.325078 58.5536 0.314885 58.4988 0.315546C58.4688 0.315546 58.4389 0.295551 58.4089 0.295551H35.7069C35.687 0.295551 35.6769 0.305548 35.6569 0.305548C35.6369 0.305548 35.587 0.315546 35.557 0.315546L35.447 0.345538C35.4153 0.354598 35.3849 0.368059 35.357 0.385528C35.3452 0.393479 35.3312 0.397021 35.3171 0.395525C35.3057 0.407874 35.2921 0.418038 35.277 0.425517C35.2486 0.443028 35.2219 0.463107 35.1971 0.485502C35.168 0.509583 35.1411 0.536362 35.1171 0.565482C35.0971 0.595474 35.0771 0.615469 35.0571 0.645461C35.0448 0.656854 35.0346 0.670406 35.0271 0.685451L23.6812 20.3504C23.6667 20.3787 23.6566 20.4091 23.6511 20.4404C23.63 20.4888 23.6132 20.539 23.6011 20.5903C23.5878 20.6899 23.5878 20.7907 23.6011 20.8903C23.6132 20.9417 23.63 20.9918 23.6511 21.0402C23.6566 21.0716 23.6667 21.1019 23.6812 21.1302L34.8972 40.5552H12.4752C12.4552 40.5552 12.4451 40.5652 12.4251 40.5652C12.4051 40.5652 12.3552 40.5752 12.3252 40.5752L12.2152 40.6052C12.1835 40.6143 12.1532 40.6277 12.1252 40.6452C12.1152 40.6552 12.0953 40.6552 12.0853 40.6652L12.0553 40.6952C12.0268 40.7127 12.0001 40.7328 11.9753 40.7552C11.9462 40.7793 11.9194 40.806 11.8953 40.8352C11.8753 40.8652 11.8554 40.8851 11.8354 40.9151C11.823 40.9265 11.8128 40.9401 11.8053 40.9551L0.449369 60.6201C0.43493 60.6484 0.424792 60.6787 0.419351 60.7101C0.398219 60.7584 0.381442 60.8086 0.369319 60.86C0.355979 60.9596 0.355979 61.0604 0.369319 61.1599C0.381442 61.2113 0.398219 61.2615 0.419351 61.3099C0.424792 61.3412 0.43493 61.3716 0.449369 61.3999L11.8053 81.0648L11.8354 81.0948C11.8555 81.1272 11.8789 81.1573 11.9053 81.1848C11.9453 81.2248 11.9853 81.2548 12.0252 81.2948C12.0552 81.3148 12.0653 81.3448 12.0953 81.3548C12.107 81.3627 12.1211 81.3663 12.1352 81.3648C12.2437 81.4202 12.3632 81.451 12.485 81.4548H34.9072L23.7012 100.88C23.6867 100.908 23.6766 100.938 23.6712 100.97C23.65 101.018 23.6332 101.068 23.6211 101.12C23.6078 101.219 23.6078 101.32 23.6211 101.42C23.6332 101.471 23.65 101.521 23.6712 101.57C23.6766 101.601 23.6867 101.631 23.7012 101.66L35.0471 121.325L35.0772 121.355C35.0973 121.387 35.1207 121.417 35.1471 121.444C35.1871 121.484 35.2271 121.514 35.267 121.554C35.297 121.574 35.3071 121.604 35.3371 121.614C35.3488 121.622 35.3629 121.626 35.377 121.624C35.4855 121.68 35.605 121.711 35.7268 121.714H58.4289C58.5507 121.711 58.6702 121.68 58.7788 121.624C58.8087 121.604 58.8287 121.584 58.8587 121.564C58.9395 121.514 59.0079 121.445 59.0587 121.365C59.0687 121.345 59.0886 121.335 59.1086 121.315L70.3247 101.89L81.5407 121.315L81.5708 121.345C81.5909 121.377 81.6143 121.407 81.6407 121.435C81.6807 121.474 81.7206 121.504 81.7606 121.544C81.7906 121.564 81.8006 121.594 81.8306 121.604C81.8423 121.612 81.8565 121.616 81.8706 121.614C81.9791 121.67 82.0986 121.701 82.2204 121.704H104.923C105.044 121.701 105.164 121.67 105.272 121.614C105.302 121.594 105.322 121.574 105.352 121.554C105.433 121.504 105.501 121.435 105.552 121.355C105.562 121.335 105.582 121.325 105.602 121.305L116.898 101.65ZM104.413 120.135H83.52L93.9663 102.039H114.859L104.413 120.135ZM57.9291 120.135H37.0364L59.3785 81.4447H80.2712L57.9291 120.135ZM13.7946 79.8652L24.2409 61.7698H68.9152L58.4688 79.8652H13.7946ZM12.4351 42.8946L22.8814 60.99L12.4351 79.0854L1.98874 60.99L12.4351 42.8946ZM25.2305 20.7203L35.6769 2.62495L58.019 41.315L47.5728 59.4104L25.2305 20.7203ZM82.1705 2.63495L92.6168 20.7303L70.2847 59.4204L59.8383 41.325L82.1705 2.63495ZM104.413 1.84515L114.859 19.9405H93.9663L83.52 1.84515H104.413ZM127.664 42.1148L138.111 60.2102H93.4366L82.9902 42.1148H127.664ZM81.6207 42.8946L91.6071 60.2002H71.6242L81.6207 42.8946ZM68.9152 60.2002H48.9323L58.9187 42.8946L68.9152 60.2002ZM70.2747 62.5596L80.2612 79.8652H60.2782L70.2747 62.5596ZM71.6342 61.7798H92.5168L114.849 100.47H93.9563L71.6342 61.7798ZM94.3362 61.7798H138.101L127.654 79.8752H104.773L94.3362 61.7798ZM82.9902 40.5352L93.9763 21.5101H114.869L103.883 40.5352H82.9902ZM58.9187 39.7554L37.0364 1.84515H57.9291L69.375 21.6601L58.9187 39.7554ZM46.2032 60.2002H24.2309L13.7846 42.1048H35.7569L46.2032 60.2002ZM57.5592 81.4447L35.6769 119.355L25.2305 101.26L36.6666 81.4447H57.5592ZM81.6207 82.2245L92.6068 101.25L82.1605 119.345L71.1744 100.31L81.6207 82.2245Z" fill="white"/>
</g>
<defs>
<clipPath id="clip0_2_113">
<rect width="139.891" height="121.438" fill="white" transform="translate(0.359375 0.28125)"/>
</clipPath>
</defs>
</svg>
